<?xml version="1.0" encoding="UTF-8" standalone="no"?>
<!DOCTYPE svg PUBLIC "-//W3C//DTD SVG 1.1//EN"
 "http://www.w3.org/Graphics/SVG/1.1/DTD/svg11.dtd">
<!-- Generated by graphviz version 2.47.0 (20210316.0004)
 -->
<!-- Title: dependencies Pages: 1 -->
<svg width="2101pt" height="298pt"
 viewBox="0.00 0.00 2101.00 298.00" xmlns="http://www.w3.org/2000/svg" xmlns:xlink="http://www.w3.org/1999/xlink">
<g id="graph0" class="graph" transform="scale(1 1) rotate(0) translate(4 294)">
<title>dependencies</title>
<polygon fill="white" stroke="transparent" points="-4,4 -4,-294 2097,-294 2097,4 -4,4"/>
<text text-anchor="start" x="1025.51" y="-42.4" font-family="Times-12" font-weight="bold" font-size="14.00">Legend</text>
<polygon fill="#ffffb3" stroke="transparent" points="812.5,-10 812.5,-30 832.5,-30 832.5,-10 812.5,-10"/>
<text text-anchor="start" x="836.13" y="-15.4" font-family="Times-12" font-size="14.00"> &#160;Declarations</text>
<polygon fill="#8dd3c7" stroke="transparent" points="925.5,-10 925.5,-30 945.5,-30 945.5,-10 925.5,-10"/>
<text text-anchor="start" x="949.23" y="-15.4" font-family="Times-12" font-size="14.00"> &#160;Module</text>
<polygon fill="#80b1d3" stroke="transparent" points="1011.5,-10 1011.5,-30 1031.5,-30 1031.5,-10 1011.5,-10"/>
<text text-anchor="start" x="1035.28" y="-15.4" font-family="Times-12" font-size="14.00"> &#160;Bootstrap</text>
<polygon fill="#fdb462" stroke="transparent" points="1108.5,-10 1108.5,-30 1128.5,-30 1128.5,-10 1108.5,-10"/>
<text text-anchor="start" x="1132.17" y="-15.4" font-family="Times-12" font-size="14.00"> &#160;Providers</text>
<polygon fill="#fb8072" stroke="transparent" points="1204.5,-10 1204.5,-30 1224.5,-30 1224.5,-10 1204.5,-10"/>
<text text-anchor="start" x="1228.23" y="-15.4" font-family="Times-12" font-size="14.00"> &#160;Exports</text>
<g id="clust1" class="cluster">
<title>cluster_AppModule</title>
<polygon fill="none" stroke="black" stroke-dasharray="1,5" points="754,-146 754,-274 1120,-274 1120,-146 754,-146"/>
</g>
<g id="clust3" class="cluster">
<title>cluster_AppModule_imports</title>
<polygon fill="none" stroke="black" points="762,-154 762,-206 1112,-206 1112,-154 762,-154"/>
</g>
<g id="clust7" class="cluster">
<title>cluster_AuthModule</title>
<polygon fill="none" stroke="black" stroke-dasharray="1,5" points="8,-70 8,-138 1454,-138 1454,-70 8,-70"/>
</g>
<g id="clust10" class="cluster">
<title>cluster_AuthModule_exports</title>
<polygon fill="none" stroke="black" points="1031,-78 1031,-130 1446,-130 1446,-78 1031,-78"/>
</g>
<g id="clust12" class="cluster">
<title>cluster_AuthModule_providers</title>
<polygon fill="none" stroke="black" points="16,-78 16,-130 1023,-130 1023,-78 16,-78"/>
</g>
<g id="clust13" class="cluster">
<title>cluster_PaginationModule</title>
<polygon fill="none" stroke="black" stroke-dasharray="1,5" points="1128,-214 1128,-282 1803,-282 1803,-214 1128,-214"/>
</g>
<g id="clust16" class="cluster">
<title>cluster_PaginationModule_exports</title>
<polygon fill="none" stroke="black" points="1512,-222 1512,-274 1795,-274 1795,-222 1512,-222"/>
</g>
<g id="clust18" class="cluster">
<title>cluster_PaginationModule_providers</title>
<polygon fill="none" stroke="black" points="1136,-222 1136,-274 1504,-274 1504,-222 1136,-222"/>
</g>
<g id="clust19" class="cluster">
<title>cluster_UsersModule</title>
<polygon fill="none" stroke="black" stroke-dasharray="1,5" points="1811,-214 1811,-282 2085,-282 2085,-214 1811,-214"/>
</g>
<g id="clust22" class="cluster">
<title>cluster_UsersModule_exports</title>
<polygon fill="none" stroke="black" points="1967,-222 1967,-274 2077,-274 2077,-222 1967,-222"/>
</g>
<g id="clust24" class="cluster">
<title>cluster_UsersModule_providers</title>
<polygon fill="none" stroke="black" points="1819,-222 1819,-274 1959,-274 1959,-222 1819,-222"/>
</g>
<!-- AuthModule -->
<g id="node1" class="node">
<title>AuthModule</title>
<polygon fill="#8dd3c7" stroke="black" points="857.55,-198 854.55,-202 833.55,-202 830.55,-198 770.45,-198 770.45,-162 857.55,-162 857.55,-198"/>
<text text-anchor="middle" x="814" y="-175.8" font-family="Times,serif" font-size="14.00">AuthModule</text>
</g>
<!-- AppModule -->
<g id="node4" class="node">
<title>AppModule</title>
<polygon fill="#8dd3c7" stroke="black" points="976.66,-266 973.66,-270 952.66,-270 949.66,-266 893.34,-266 893.34,-230 976.66,-230 976.66,-266"/>
<text text-anchor="middle" x="935" y="-243.8" font-family="Times,serif" font-size="14.00">AppModule</text>
</g>
<!-- AuthModule&#45;&gt;AppModule -->
<g id="edge1" class="edge">
<title>AuthModule&#45;&gt;AppModule</title>
<path fill="none" stroke="black" d="M814,-198.22C814,-218.37 814,-248 814,-248 814,-248 883.02,-248 883.02,-248"/>
<polygon fill="black" stroke="black" points="883.02,-251.5 893.02,-248 883.02,-244.5 883.02,-251.5"/>
</g>
<!-- AuthService  -->
<g id="node5" class="node">
<title>AuthService </title>
<polygon fill="#fb8072" stroke="black" points="1260.98,-122 1171.02,-122 1171.02,-86 1260.98,-86 1260.98,-122"/>
<text text-anchor="middle" x="1216" y="-99.8" font-family="Times,serif" font-size="14.00">AuthService </text>
</g>
<!-- AuthModule&#45;&gt;AuthService  -->
<g id="edge4" class="edge">
<title>AuthModule&#45;&gt;AuthService </title>
<path fill="none" stroke="black" stroke-dasharray="5,2" d="M834.44,-161.89C834.44,-152.1 834.44,-142 834.44,-142 834.44,-142 1216,-142 1216,-142 1216,-142 1216,-132.11 1216,-132.11"/>
<polygon fill="black" stroke="black" points="1219.5,-132.11 1216,-122.11 1212.5,-132.11 1219.5,-132.11"/>
</g>
<!-- HashingProvider  -->
<g id="node6" class="node">
<title>HashingProvider </title>
<polygon fill="#fb8072" stroke="black" points="1153.37,-122 1038.63,-122 1038.63,-86 1153.37,-86 1153.37,-122"/>
<text text-anchor="middle" x="1096" y="-99.8" font-family="Times,serif" font-size="14.00">HashingProvider </text>
</g>
<!-- AuthModule&#45;&gt;HashingProvider  -->
<g id="edge5" class="edge">
<title>AuthModule&#45;&gt;HashingProvider </title>
<path fill="none" stroke="black" stroke-dasharray="5,2" d="M822.77,-161.85C822.77,-148.26 822.77,-132 822.77,-132 822.77,-132 1071.26,-132 1071.26,-132 1071.26,-132 1071.26,-131.02 1071.26,-131.02"/>
<polygon fill="black" stroke="black" points="1074.76,-132.21 1071.26,-122.21 1067.76,-132.21 1074.76,-132.21"/>
</g>
<!-- TokenGeneratorProvider  -->
<g id="node7" class="node">
<title>TokenGeneratorProvider </title>
<polygon fill="#fb8072" stroke="black" points="1437.94,-122 1278.06,-122 1278.06,-86 1437.94,-86 1437.94,-122"/>
<text text-anchor="middle" x="1358" y="-99.8" font-family="Times,serif" font-size="14.00">TokenGeneratorProvider </text>
</g>
<!-- AuthModule&#45;&gt;TokenGeneratorProvider  -->
<g id="edge6" class="edge">
<title>AuthModule&#45;&gt;TokenGeneratorProvider </title>
<path fill="none" stroke="black" stroke-dasharray="5,2" d="M846.11,-161.79C846.11,-156.45 846.11,-152 846.11,-152 846.11,-152 1292.29,-152 1292.29,-152 1292.29,-152 1292.29,-132.15 1292.29,-132.15"/>
<polygon fill="black" stroke="black" points="1295.79,-132.15 1292.29,-122.15 1288.79,-132.15 1295.79,-132.15"/>
</g>
<!-- PaginationModule -->
<g id="node2" class="node">
<title>PaginationModule</title>
<polygon fill="#8dd3c7" stroke="black" points="994.93,-198 991.93,-202 970.93,-202 967.93,-198 875.07,-198 875.07,-162 994.93,-162 994.93,-198"/>
<text text-anchor="middle" x="935" y="-175.8" font-family="Times,serif" font-size="14.00">PaginationModule</text>
</g>
<!-- PaginationModule&#45;&gt;AppModule -->
<g id="edge2" class="edge">
<title>PaginationModule&#45;&gt;AppModule</title>
<path fill="none" stroke="black" d="M935,-198.22C935,-198.22 935,-219.73 935,-219.73"/>
<polygon fill="black" stroke="black" points="931.5,-219.73 935,-229.73 938.5,-219.73 931.5,-219.73"/>
</g>
<!-- PaginationProvider  -->
<g id="node13" class="node">
<title>PaginationProvider </title>
<polygon fill="#fb8072" stroke="black" points="1786.59,-266 1659.41,-266 1659.41,-230 1786.59,-230 1786.59,-266"/>
<text text-anchor="middle" x="1723" y="-243.8" font-family="Times,serif" font-size="14.00">PaginationProvider </text>
</g>
<!-- PaginationModule&#45;&gt;PaginationProvider  -->
<g id="edge12" class="edge">
<title>PaginationModule&#45;&gt;PaginationProvider </title>
<path fill="none" stroke="black" stroke-dasharray="5,2" d="M983.98,-198.06C983.98,-202.49 983.98,-206 983.98,-206 983.98,-206 1723,-206 1723,-206 1723,-206 1723,-219.94 1723,-219.94"/>
<polygon fill="black" stroke="black" points="1719.5,-219.94 1723,-229.94 1726.5,-219.94 1719.5,-219.94"/>
</g>
<!-- PaginationService  -->
<g id="node14" class="node">
<title>PaginationService </title>
<polygon fill="#fb8072" stroke="black" points="1641.86,-266 1520.14,-266 1520.14,-230 1641.86,-230 1641.86,-266"/>
<text text-anchor="middle" x="1581" y="-243.8" font-family="Times,serif" font-size="14.00">PaginationService </text>
</g>
<!-- PaginationModule&#45;&gt;PaginationService  -->
<g id="edge13" class="edge">
<title>PaginationModule&#45;&gt;PaginationService </title>
<path fill="none" stroke="black" stroke-dasharray="5,2" d="M980.41,-198.19C980.41,-206.28 980.41,-214 980.41,-214 980.41,-214 1581,-214 1581,-214 1581,-214 1581,-219.81 1581,-219.81"/>
<polygon fill="black" stroke="black" points="1577.5,-219.81 1581,-229.81 1584.5,-219.81 1577.5,-219.81"/>
</g>
<!-- UsersModule -->
<g id="node3" class="node">
<title>UsersModule</title>
<polygon fill="#8dd3c7" stroke="black" points="1103.92,-198 1100.92,-202 1079.92,-202 1076.92,-198 1012.08,-198 1012.08,-162 1103.92,-162 1103.92,-198"/>
<text text-anchor="middle" x="1058" y="-175.8" font-family="Times,serif" font-size="14.00">UsersModule</text>
</g>
<!-- UsersModule&#45;&gt;AppModule -->
<g id="edge3" class="edge">
<title>UsersModule&#45;&gt;AppModule</title>
<path fill="none" stroke="black" d="M1058,-198.27C1058,-216.56 1058,-242 1058,-242 1058,-242 986.99,-242 986.99,-242"/>
<polygon fill="black" stroke="black" points="986.99,-238.5 976.99,-242 986.99,-245.5 986.99,-238.5"/>
</g>
<!-- UsersService  -->
<g id="node17" class="node">
<title>UsersService </title>
<polygon fill="#fb8072" stroke="black" points="2068.85,-266 1975.15,-266 1975.15,-230 2068.85,-230 2068.85,-266"/>
<text text-anchor="middle" x="2022" y="-243.8" font-family="Times,serif" font-size="14.00">UsersService </text>
</g>
<!-- UsersModule&#45;&gt;UsersService  -->
<g id="edge16" class="edge">
<title>UsersModule&#45;&gt;UsersService </title>
<path fill="none" stroke="black" stroke-dasharray="5,2" d="M1103.85,-174C1295.42,-174 2022,-174 2022,-174 2022,-174 2022,-219.71 2022,-219.71"/>
<polygon fill="black" stroke="black" points="2018.5,-219.71 2022,-229.71 2025.5,-219.71 2018.5,-219.71"/>
</g>
<!-- AuthService -->
<g id="node8" class="node">
<title>AuthService</title>
<ellipse fill="#fdb462" stroke="black" cx="722" cy="-104" rx="59.11" ry="18"/>
<text text-anchor="middle" x="722" y="-99.8" font-family="Times,serif" font-size="14.00">AuthService</text>
</g>
<!-- AuthService&#45;&gt;AuthModule -->
<g id="edge7" class="edge">
<title>AuthService&#45;&gt;AuthModule</title>
<path fill="none" stroke="black" d="M775.77,-111.85C775.77,-111.85 775.77,-151.73 775.77,-151.73"/>
<polygon fill="black" stroke="black" points="772.27,-151.73 775.77,-161.73 779.27,-151.73 772.27,-151.73"/>
</g>
<!-- RefreshTokenGeneratorProvider -->
<g id="node9" class="node">
<title>RefreshTokenGeneratorProvider</title>
<ellipse fill="#fdb462" stroke="black" cx="507" cy="-104" rx="137.68" ry="18"/>
<text text-anchor="middle" x="507" y="-99.8" font-family="Times,serif" font-size="14.00">RefreshTokenGeneratorProvider</text>
</g>
<!-- RefreshTokenGeneratorProvider&#45;&gt;AuthModule -->
<g id="edge8" class="edge">
<title>RefreshTokenGeneratorProvider&#45;&gt;AuthModule</title>
<path fill="none" stroke="black" d="M507,-122.31C507,-142.15 507,-171 507,-171 507,-171 760.34,-171 760.34,-171"/>
<polygon fill="black" stroke="black" points="760.34,-174.5 770.34,-171 760.34,-167.5 760.34,-174.5"/>
</g>
<!-- SetCookieProvider -->
<g id="node10" class="node">
<title>SetCookieProvider</title>
<ellipse fill="#fdb462" stroke="black" cx="267" cy="-104" rx="84.55" ry="18"/>
<text text-anchor="middle" x="267" y="-99.8" font-family="Times,serif" font-size="14.00">SetCookieProvider</text>
</g>
<!-- SetCookieProvider&#45;&gt;AuthModule -->
<g id="edge9" class="edge">
<title>SetCookieProvider&#45;&gt;AuthModule</title>
<path fill="none" stroke="black" d="M267,-122.01C267,-144.49 267,-180 267,-180 267,-180 760.16,-180 760.16,-180"/>
<polygon fill="black" stroke="black" points="760.16,-183.5 770.16,-180 760.16,-176.5 760.16,-183.5"/>
</g>
<!-- SignInProvider -->
<g id="node11" class="node">
<title>SignInProvider</title>
<ellipse fill="#fdb462" stroke="black" cx="94" cy="-104" rx="70.08" ry="18"/>
<text text-anchor="middle" x="94" y="-99.8" font-family="Times,serif" font-size="14.00">SignInProvider</text>
</g>
<!-- SignInProvider&#45;&gt;AuthModule -->
<g id="edge10" class="edge">
<title>SignInProvider&#45;&gt;AuthModule</title>
<path fill="none" stroke="black" d="M94,-122.03C94,-146.98 94,-189 94,-189 94,-189 760.31,-189 760.31,-189"/>
<polygon fill="black" stroke="black" points="760.31,-192.5 770.31,-189 760.31,-185.5 760.31,-192.5"/>
</g>
<!-- TokenGeneratorProvider -->
<g id="node12" class="node">
<title>TokenGeneratorProvider</title>
<ellipse fill="#fdb462" stroke="black" cx="907" cy="-104" rx="107.63" ry="18"/>
<text text-anchor="middle" x="907" y="-99.8" font-family="Times,serif" font-size="14.00">TokenGeneratorProvider</text>
</g>
<!-- TokenGeneratorProvider&#45;&gt;AuthModule -->
<g id="edge11" class="edge">
<title>TokenGeneratorProvider&#45;&gt;AuthModule</title>
<path fill="none" stroke="black" d="M811.1,-112.42C811.1,-112.42 811.1,-151.73 811.1,-151.73"/>
<polygon fill="black" stroke="black" points="807.6,-151.73 811.1,-161.73 814.6,-151.73 807.6,-151.73"/>
</g>
<!-- PaginationProvider -->
<g id="node15" class="node">
<title>PaginationProvider</title>
<ellipse fill="#fdb462" stroke="black" cx="1410" cy="-248" rx="85.69" ry="18"/>
<text text-anchor="middle" x="1410" y="-243.8" font-family="Times,serif" font-size="14.00">PaginationProvider</text>
</g>
<!-- PaginationProvider&#45;&gt;PaginationModule -->
<g id="edge14" class="edge">
<title>PaginationProvider&#45;&gt;PaginationModule</title>
<path fill="none" stroke="black" d="M1381.06,-230.8C1381.06,-225.97 1381.06,-222 1381.06,-222 1381.06,-222 987.56,-222 987.56,-222 987.56,-222 987.56,-208.06 987.56,-208.06"/>
<polygon fill="black" stroke="black" points="991.06,-208.06 987.56,-198.06 984.06,-208.06 991.06,-208.06"/>
</g>
<!-- PaginationService -->
<g id="node16" class="node">
<title>PaginationService</title>
<ellipse fill="#fdb462" stroke="black" cx="1225" cy="-248" rx="81.1" ry="18"/>
<text text-anchor="middle" x="1225" y="-243.8" font-family="Times,serif" font-size="14.00">PaginationService</text>
</g>
<!-- PaginationService&#45;&gt;PaginationModule -->
<g id="edge15" class="edge">
<title>PaginationService&#45;&gt;PaginationModule</title>
<path fill="none" stroke="black" d="M1148.1,-254C1079.94,-254 991.14,-254 991.14,-254 991.14,-254 991.14,-208.29 991.14,-208.29"/>
<polygon fill="black" stroke="black" points="994.64,-208.29 991.14,-198.29 987.64,-208.29 994.64,-208.29"/>
</g>
<!-- UsersService -->
<g id="node18" class="node">
<title>UsersService</title>
<ellipse fill="#fdb462" stroke="black" cx="1889" cy="-248" rx="61.95" ry="18"/>
<text text-anchor="middle" x="1889" y="-243.8" font-family="Times,serif" font-size="14.00">UsersService</text>
</g>
<!-- UsersService&#45;&gt;UsersModule -->
<g id="edge17" class="edge">
<title>UsersService&#45;&gt;UsersModule</title>
<path fill="none" stroke="black" d="M1889,-229.73C1889,-211.44 1889,-186 1889,-186 1889,-186 1113.86,-186 1113.86,-186"/>
<polygon fill="black" stroke="black" points="1113.86,-182.5 1103.86,-186 1113.86,-189.5 1113.86,-182.5"/>
</g>
</g>
</svg>
